# xmcd CD database file
#
# Track frame offsets:
#	150
#	21371
#	42564
#	68742
#	92017
#	110578
#	127089
#	154360
#	180214
#	202811
#	222916
#	241703
#
# Disc length: 3484 seconds
#
# Revision: 4
# Processed by: cddbd v1.5.2PL0 Copyright (c) Steve Scherf et al.
# Submitted via: CDex 1.73
#
DISCID=a20d9a0c
DTITLE=Joe Cocker - Fire It Up Live -  CD1
DYEAR=2013
DGENRE=Rock
TTITLE0=I come in peace
TTITLE1=Feelin' alright
TTITLE2=The letter
TTITLE3=When the night comes
TTITLE4=You love me back
TTITLE5=I'll be your doctor
TTITLE6=Up where we belong
TTITLE7=Come together
TTITLE8=Eye on the prize
TTITLE9=You don't need a million dollars
TTITLE10=You are so beautiful
TTITLE11=Younger
EXTD=YEAR: 2013
EXTT0=
EXTT1=
EXTT2=
EXTT3=
EXTT4=
EXTT5=
EXTT6=
EXTT7=
EXTT8=
EXTT9=
EXTT10=
EXTT11=
PLAYORDER=
